HIERARCHY
ROOT pelvis
{
  OFFSET 0 100 0
  CHANNELS 6 Xposition Yposition Zposition Zrotation Xrotation Yrotation
  JOINT pelvis_right_femur
  {
    OFFSET -10.78128 -3.44521 -0.5502486
    CHANNELS 3 Zrotation Xrotation Yrotation
    JOINT right_femur_tibia
    {
      OFFSET -0.8047443 -44.0398 -0.1307829
      CHANNELS 3 Zrotation Xrotation Yrotation
      JOINT right_tibia_foot
      {
        OFFSET 3.006224 -47.83518 -5
        CHANNELS 3 Zrotation Xrotation Yrotation
        End Site
        {
          OFFSET 0 -5 15
        }
      }
    }
  }
  JOINT pelvis_left_femur
  {
    OFFSET 10.78128 -3.44521 -0.5502486
    CHANNELS 3 Zrotation Xrotation Yrotation
    JOINT left_femur_tibia
    {
      OFFSET 0.8047443 -44.0398 -0.1307829
      CHANNELS 3 Zrotation Xrotation Yrotation
      JOINT left_tibia_foot
      {
        OFFSET -4.370144 -48.10324 -4.275266
        CHANNELS 3 Zrotation Xrotation Yrotation
        End Site
        {
          OFFSET 0 -5 15
        }
      }
    }
  }
  JOINT pelvis_spine1
  {
    OFFSET 0 6.468898 -3.129235
    CHANNELS 3 Zrotation Xrotation Yrotation
    JOINT spine1
    {
      OFFSET 0 23.15396 4.99043
      CHANNELS 3 Zrotation Xrotation Yrotation
      JOINT spine2
      {
        OFFSET 0 20.79997 -5.064912
        CHANNELS 3 Zrotation Xrotation Yrotation
        JOINT neck
        {
          OFFSET 0 14.38658 9.616178
          CHANNELS 3 Zrotation Xrotation Yrotation
          End Site
          {
            OFFSET 0 20 0
          }
        }
      }
      JOINT right_manubrium
      {
        OFFSET -5.722621 16.35077 3.967754
        CHANNELS 3 Zrotation Xrotation Yrotation
        JOINT right_clavicle
        {
          OFFSET -13.16364 1.694482 -4.693211
          CHANNELS 3 Zrotation Xrotation Yrotation
          JOINT right_humerus
          {
            OFFSET -28.5034 -0.3100689 -2.792744
            CHANNELS 3 Zrotation Xrotation Yrotation
            JOINT right_radius
            {
              OFFSET -25.15693 0.02248979 -1.271978
              CHANNELS 3 Zrotation Xrotation Yrotation
              End Site
              {
                OFFSET -15 0 0
              }
            }
          }
        }
      }
      JOINT left_manubrium
      {
        OFFSET 5.722621 16.35077 3.967754
        CHANNELS 3 Zrotation Xrotation Yrotation
        JOINT left_clavicle
        {
          OFFSET 13.16364 1.694482 -4.693211
          CHANNELS 3 Zrotation Xrotation Yrotation
          JOINT left_humerus
          {
            OFFSET 29.39168 -1.063119 -2.237045
            CHANNELS 3 Zrotation Xrotation Yrotation
            JOINT left_radius
            {
              OFFSET 24.59957 -0.9528479 0.9047498
              CHANNELS 3 Zrotation Xrotation Yrotation
              End Site
              {
                OFFSET 15 -0 -0
              }
            }
          }
        }
      }
    }
  }
}
MOTION
Frames: 21
Frame Time: 0.0416666666667
-713.9321 108.496 -404.3863 8.08785 -0.108771 88.03231 3.344846 14.18071 -1.030339 -0 17.57433 -0 -12.68316 -11.83156 0.3985163 2.395509 -17.94859 -4.782758 -0 14.99913 -0 0.7779815 -0.5757192 16.21599 -0.2443685 -2.76797 7.729441 -0.1962386 13.94836 -4.349034 0.08900247 20.70022 5.483633 5.214162 -15.10256 3.333781 2.725438 -26.30402 12.45385 82.73131 23.86615 -8.002238 -0 0 26.51322 -22.46201 13.84923 11.57776 4.491351 -23.18295 -7.978887 -96.55045 8.631772 34.1819 0 0 -0.3548634 10.40031 13.50318 -0.6385343
-708.158 108.486 -405.4653 8.086425 -0.1872007 87.48034 3.344846 14.18071 -1.030339 -0 17.57433 -0 -12.68316 -11.83156 0.3985163 2.395509 -17.94859 -4.782758 -0 14.99913 -0 0.7779815 -0.5757192 16.21599 -0.2443685 -2.76797 7.729441 -0.1962386 13.94836 -4.349034 0.08900247 20.70022 5.483633 5.214162 -15.10256 3.333781 2.725438 -26.30402 12.45385 82.73131 23.86615 -8.002238 -0 0 26.51322 -22.46201 13.84923 11.57776 4.491351 -23.18295 -7.978887 -96.55045 8.631772 34.1819 0 0 -0.3548634 10.40031 13.50318 -0.6385343
-702.3737 108.476 -406.4881 8.084243 -0.2656131 86.92838 3.344846 14.18071 -1.030339 -0 17.57433 -0 -12.68316 -11.83156 0.3985163 2.395509 -17.94859 -4.782758 -0 14.99913 -0 0.7779815 -0.5757192 16.21599 -0.2443685 -2.76797 7.729441 -0.1962386 13.94836 -4.349034 0.08900247 20.70022 5.483633 5.214162 -15.10256 3.333781 2.725438 -26.30402 12.45385 82.73131 23.86615 -8.002238 -0 0 26.51322 -22.46201 13.84923 11.57776 4.491351 -23.18295 -7.978887 -96.55045 8.631772 34.1819 0 0 -0.3548634 10.40031 13.50318 -0.6385343
-696.5797 108.466 -407.4546 8.081307 -0.3440008 86.3764 3.344846 14.18071 -1.030339 -0 17.57433 -0 -12.68316 -11.83156 0.3985163 2.395509 -17.94859 -4.782758 -0 14.99913 -0 0.7779815 -0.5757192 16.21599 -0.2443685 -2.76797 7.729441 -0.1962386 13.94836 -4.349034 0.08900247 20.70022 5.483633 5.214162 -15.10256 3.333781 2.725438 -26.30402 12.45385 82.73131 23.86615 -8.002238 -0 0 26.51322 -22.46201 13.84923 11.57776 4.491351 -23.18295 -7.978887 -96.55045 8.631772 34.1819 0 0 -0.3548634 10.40031 13.50318 -0.6385343
-690.7765 108.456 -408.3646 8.077615 -0.4223566 85.82442 3.344846 14.18071 -1.030339 -0 17.57433 -0 -12.68316 -11.83156 0.3985163 2.395509 -17.94859 -4.782758 -0 14.99913 -0 0.7779815 -0.5757192 16.21599 -0.2443685 -2.76797 7.729441 -0.1962386 13.94836 -4.349034 0.08900247 20.70022 5.483633 5.214162 -15.10256 3.333781 2.725438 -26.30402 12.45385 82.73131 23.86615 -8.002238 -0 0 26.51322 -22.46201 13.84923 11.57776 4.491351 -23.18295 -7.978887 -96.55045 8.631772 34.1819 0 0 -0.3548634 10.40031 13.50318 -0.6385343
-684.9648 108.4461 -409.2181 8.073169 -0.5006732 85.27243 3.344846 14.18071 -1.030339 -0 17.57433 -0 -12.68316 -11.83156 0.3985163 2.395509 -17.94859 -4.782758 -0 14.99913 -0 0.7779815 -0.5757192 16.21599 -0.2443685 -2.76797 7.729441 -0.1962386 13.94836 -4.349034 0.08900247 20.70022 5.483633 5.214162 -15.10256 3.333781 2.725438 -26.30402 12.45385 82.73131 23.86615 -8.002238 -0 0 26.51322 -22.46201 13.84923 11.57776 4.491351 -23.18295 -7.978887 -96.55045 8.631772 34.1819 0 0 -0.3548634 10.40031 13.50318 -0.6385343
-679.1451 108.4361 -410.0151 8.067969 -0.5789433 84.72042 3.344846 14.18071 -1.030339 -0 17.57433 -0 -12.68316 -11.83156 0.3985163 2.395509 -17.94859 -4.782758 -0 14.99913 -0 0.7779815 -0.5757192 16.21599 -0.2443685 -2.76797 7.729441 -0.1962386 13.94836 -4.349034 0.08900247 20.70022 5.483633 5.214162 -15.10256 3.333781 2.725438 -26.30402 12.45385 82.73131 23.86615 -8.002238 -0 0 26.51322 -22.46201 13.84923 11.57776 4.491351 -23.18295 -7.978887 -96.55045 8.631772 34.1819 0 0 -0.3548634 10.40031 13.50318 -0.6385343
-673.3179 108.4261 -410.7553 8.062014 -0.6571597 84.1684 3.344846 14.18071 -1.030339 -0 17.57433 -0 -12.68316 -11.83156 0.3985163 2.395509 -17.94859 -4.782758 -0 14.99913 -0 0.7779815 -0.5757192 16.21599 -0.2443685 -2.76797 7.729441 -0.1962386 13.94836 -4.349034 0.08900247 20.70022 5.483633 5.214162 -15.10256 3.333781 2.725438 -26.30402 12.45385 82.73131 23.86615 -8.002238 -0 0 26.51322 -22.46201 13.84923 11.57776 4.491351 -23.18295 -7.978887 -96.55045 8.631772 34.1819 0 0 -0.3548634 10.40031 13.50318 -0.6385343
-667.4837 108.4161 -411.4388 8.055306 -0.7353151 83.61636 3.344846 14.18071 -1.030339 -0 17.57433 -0 -12.68316 -11.83156 0.3985163 2.395509 -17.94859 -4.782758 -0 14.99913 -0 0.7779815 -0.5757192 16.21599 -0.2443685 -2.76797 7.729441 -0.1962386 13.94836 -4.349034 0.08900247 20.70022 5.483633 5.214162 -15.10256 3.333781 2.725438 -26.30402 12.45385 82.73131 23.86615 -8.002238 -0 0 26.51322 -22.46201 13.84923 11.57776 4.491351 -23.18295 -7.978887 -96.55045 8.631772 34.1819 0 0 -0.3548634 10.40031 13.50318 -0.6385343
-661.6432 108.4061 -412.0656 8.047845 -0.8134022 83.0643 3.344846 14.18071 -1.030339 -0 17.57433 -0 -12.68316 -11.83156 0.3985163 2.395509 -17.94859 -4.782758 -0 14.99913 -0 0.7779815 -0.5757192 16.21599 -0.2443685 -2.76797 7.729441 -0.1962386 13.94836 -4.349034 0.08900247 20.70022 5.483633 5.214162 -15.10256 3.333781 2.725438 -26.30402 12.45385 82.73131 23.86615 -8.002238 -0 0 26.51322 -22.46201 13.84923 11.57776 4.491351 -23.18295 -7.978887 -96.55045 8.631772 34.1819 0 0 -0.3548634 10.40031 13.50318 -0.6385343
-655.7969 108.3961 -412.6355 8.039632 -0.8914139 82.51222 3.344846 14.18071 -1.030339 -0 17.57433 -0 -12.68316 -11.83156 0.3985163 2.395509 -17.94859 -4.782758 -0 14.99913 -0 0.7779815 -0.5757192 16.21599 -0.2443685 -2.76797 7.729441 -0.1962386 13.94836 -4.349034 0.08900247 20.70022 5.483633 5.214162 -15.10256 3.333781 2.725438 -26.30402 12.45385 82.73131 23.86615 -8.002238 -0 0 26.51322 -22.46201 13.84923 11.57776 4.491351 -23.18295 -7.978887 -96.55045 8.631772 34.1819 0 0 -0.3548634 10.40031 13.50318 -0.6385343
-649.9453 108.3861 -413.1484 8.030667 -0.9693427 81.96011 3.344846 14.18071 -1.030339 -0 17.57433 -0 -12.68316 -11.83156 0.3985163 2.395509 -17.94859 -4.782758 -0 14.99913 -0 0.7779815 -0.5757192 16.21599 -0.2443685 -2.76797 7.729441 -0.1962386 13.94836 -4.349034 0.08900247 20.70022 5.483633 5.214162 -15.10256 3.333781 2.725438 -26.30402 12.45385 82.73131 23.86615 -8.002238 -0 0 26.51322 -22.46201 13.84923 11.57776 4.491351 -23.18295 -7.978887 -96.55045 8.631772 34.1819 0 0 -0.3548634 10.40031 13.50318 -0.6385343
-644.0889 108.3761 -413.6044 8.020951 -1.047182 81.40799 3.344846 14.18071 -1.030339 -0 17.57433 -0 -12.68316 -11.83156 0.3985163 2.395509 -17.94859 -4.782758 -0 14.99913 -0 0.7779815 -0.5757192 16.21599 -0.2443685 -2.76797 7.729441 -0.1962386 13.94836 -4.349034 0.08900247 20.70022 5.483633 5.214162 -15.10256 3.333781 2.725438 -26.30402 12.45385 82.73131 23.86615 -8.002238 -0 0 26.51322 -22.46201 13.84923 11.57776 4.491351 -23.18295 -7.978887 -96.55045 8.631772 34.1819 0 0 -0.3548634 10.40031 13.50318 -0.6385343
-638.2285 108.3661 -414.0034 8.010485 -1.124923 80.85583 3.344846 14.18071 -1.030339 -0 17.57433 -0 -12.68316 -11.83156 0.3985163 2.395509 -17.94859 -4.782758 -0 14.99913 -0 0.7779815 -0.5757192 16.21599 -0.2443685 -2.76797 7.729441 -0.1962386 13.94836 -4.349034 0.08900247 20.70022 5.483633 5.214162 -15.10256 3.333781 2.725438 -26.30402 12.45385 82.73131 23.86615 -8.002238 -0 0 26.51322 -22.46201 13.84923 11.57776 4.491351 -23.18295 -7.978887 -96.55045 8.631772 34.1819 0 0 -0.3548634 10.40031 13.50318 -0.6385343
-632.3644 108.3561 -414.3454 7.999271 -1.20256 80.30364 3.344846 14.18071 -1.030339 -0 17.57433 -0 -12.68316 -11.83156 0.3985163 2.395509 -17.94859 -4.782758 -0 14.99913 -0 0.7779815 -0.5757192 16.21599 -0.2443685 -2.76797 7.729441 -0.1962386 13.94836 -4.349034 0.08900247 20.70022 5.483633 5.214162 -15.10256 3.333781 2.725438 -26.30402 12.45385 82.73131 23.86615 -8.002238 -0 0 26.51322 -22.46201 13.84923 11.57776 4.491351 -23.18295 -7.978887 -96.55045 8.631772 34.1819 0 0 -0.3548634 10.40031 13.50318 -0.6385343
-626.4972 108.3462 -414.6302 7.987308 -1.280086 79.75143 3.344846 14.18071 -1.030339 -0 17.57433 -0 -12.68316 -11.83156 0.3985163 2.395509 -17.94859 -4.782758 -0 14.99913 -0 0.7779815 -0.5757192 16.21599 -0.2443685 -2.76797 7.729441 -0.1962386 13.94836 -4.349034 0.08900247 20.70022 5.483633 5.214162 -15.10256 3.333781 2.725438 -26.30402 12.45385 82.73131 23.86615 -8.002238 -0 0 26.51322 -22.46201 13.84923 11.57776 4.491351 -23.18295 -7.978887 -96.55045 8.631772 34.1819 0 0 -0.3548634 10.40031 13.50318 -0.6385343
-620.6276 108.3362 -414.858 7.974597 -1.357493 79.19918 3.344846 14.18071 -1.030339 -0 17.57433 -0 -12.68316 -11.83156 0.3985163 2.395509 -17.94859 -4.782758 -0 14.99913 -0 0.7779815 -0.5757192 16.21599 -0.2443685 -2.76797 7.729441 -0.1962386 13.94836 -4.349034 0.08900247 20.70022 5.483633 5.214162 -15.10256 3.333781 2.725438 -26.30402 12.45385 82.73131 23.86615 -8.002238 -0 0 26.51322 -22.46201 13.84923 11.57776 4.491351 -23.18295 -7.978887 -96.55045 8.631772 34.1819 0 0 -0.3548634 10.40031 13.50318 -0.6385343
-614.756 108.3262 -415.0287 7.961141 -1.434773 78.64689 3.344846 14.18071 -1.030339 -0 17.57433 -0 -12.68316 -11.83156 0.3985163 2.395509 -17.94859 -4.782758 -0 14.99913 -0 0.7779815 -0.5757192 16.21599 -0.2443685 -2.76797 7.729441 -0.1962386 13.94836 -4.349034 0.08900247 20.70022 5.483633 5.214162 -15.10256 3.333781 2.725438 -26.30402 12.45385 82.73131 23.86615 -8.002238 -0 0 26.51322 -22.46201 13.84923 11.57776 4.491351 -23.18295 -7.978887 -96.55045 8.631772 34.1819 0 0 -0.3548634 10.40031 13.50318 -0.6385343
-608.8831 108.3162 -415.1422 7.94694 -1.511921 78.09457 3.344846 14.18071 -1.030339 -0 17.57433 -0 -12.68316 -11.83156 0.3985163 2.395509 -17.94859 -4.782758 -0 14.99913 -0 0.7779815 -0.5757192 16.21599 -0.2443685 -2.76797 7.729441 -0.1962386 13.94836 -4.349034 0.08900247 20.70022 5.483633 5.214162 -15.10256 3.333781 2.725438 -26.30402 12.45385 82.73131 23.86615 -8.002238 -0 0 26.51322 -22.46201 13.84923 11.57776 4.491351 -23.18295 -7.978887 -96.55045 8.631772 34.1819 0 0 -0.3548634 10.40031 13.50318 -0.6385343
-603.0093 108.3062 -415.1986 7.931994 -1.588927 77.5422 3.344846 14.18071 -1.030339 -0 17.57433 -0 -12.68316 -11.83156 0.3985163 2.395509 -17.94859 -4.782758 -0 14.99913 -0 0.7779815 -0.5757192 16.21599 -0.2443685 -2.76797 7.729441 -0.1962386 13.94836 -4.349034 0.08900247 20.70022 5.483633 5.214162 -15.10256 3.333781 2.725438 -26.30402 12.45385 82.73131 23.86615 -8.002238 -0 0 26.51322 -22.46201 13.84923 11.57776 4.491351 -23.18295 -7.978887 -96.55045 8.631772 34.1819 0 0 -0.3548634 10.40031 13.50318 -0.6385343
-597.1353 108.2962 -415.1978 7.916306 -1.665787 76.9898 3.344846 14.18071 -1.030339 -0 17.57433 -0 -12.68316 -11.83156 0.3985163 2.395509 -17.94859 -4.782758 -0 14.99913 -0 0.7779815 -0.5757192 16.21599 -0.2443685 -2.76797 7.729441 -0.1962386 13.94836 -4.349034 0.08900247 20.70022 5.483633 5.214162 -15.10256 3.333781 2.725438 -26.30402 12.45385 82.73131 23.86615 -8.002238 -0 0 26.51322 -22.46201 13.84923 11.57776 4.491351 -23.18295 -7.978887 -96.55045 8.631772 34.1819 0 0 -0.3548634 10.40031 13.50318 -0.6385343
